# xmcd
#
# Track frame offsets:
#	150
#	10070
#	20622
#	30972
#	47234
#	56671
#	67936
#	79623
#	95259
#
# Disc length: 1391 seconds
#
# Revision: 0
# Processed by: cddbd v1.5.2PL0 Copyright (c) Steve Scherf et al.
# Submitted via: EasyCDDAExtractor 16.0.1.1
#
DISCID=60056d09
DTITLE=Rose Maddox - Sing A Little Song Of Heartache
DYEAR=1900
DGENRE=Country
TTITLE0=Sing A Little Song Of Heartache
TTITLE1=I Want To Live Again
TTITLE2=Gambler's Love
TTITLE3=Lonely Street
TTITLE4=Alone With You
TTITLE5=Stand Up Fool
TTITLE6=Down To The River
TTITLE7=George Carter
TTITLE8=Somebody Told Me
EXTD=
EXTT0=
EXTT1=
EXTT2=
EXTT3=
EXTT4=
EXTT5=
EXTT6=
EXTT7=
EXTT8=
PLAYORDER=
